#!OML:ASF E:/inclinewalkrobotboard/Project1/Captureday1/Session1/subject1.ASF
:FULLY-SPECIFIED
:DEGREES
338
root 0 0 0 -1.678474758140025 -4.104265282541605 -5.4202461990498705
lowerback 10.0675927016841 1.760367019788833 3.5009098610925635
upperback 0.030880773679951345 2.819181783060796 1.3135833385757725
thorax -5.547490827842106 1.307634681646102 -1.0069676858761736
lowerneck -14.289009285093625 -3.1422995644392993 -0.9789237098880007
upperneck 16.733197932612715 -4.307258829242894 1.4223074981664883
head 7.773126189253512 -2.0082314677715827 0.17449628494473043
rclavicle -1.7999596891846744E-16 -8.46826992875678E-17
rhumerus -19.728761637603498 -7.36669483608054 -67.47896498132064
rradius 60.33603308069005
rwrist -8.024180134350921
rhand -13.384602950650711 -8.71049569538768
rfingers 7.125019999999865
rthumb 12.748434237112614 -37.95311943723854
lclavicle -8.37282416343897E-16 -4.0024006485471693E-16
lhumerus -39.86603307637707 0.282452492431926 83.30686078451185
lradius 38.56076338775724
lwrist 2.588203099162243
lhand -19.18565952226296 0.1008033799889283
lfingers 7.125019999999874
lthumb 7.021113992161294 29.60368018251809
rfemur -8.433260701796797 2.16391918746513 14.368251142497055
rtibia 27.043543226793467
rfoot -1.7979362880215408 -3.2052190510639598
rtoes 3.2167827787315892
lfemur -0.3955844750217645 -4.1770305988939205 -19.432195870368204
ltibia 19.648031430148468
lfoot -18.399298622472497 4.877552602160679
ltoes -24.526833210445933
339
root 0 0 0 -1.7087791323925319 -3.203475709063758 -4.028675829848346
lowerback 10.047080405053308 1.2054273596571285 1.9701439395545577
upperback 0.053197363424268895 1.8971629981789762 1.256593439611016
thorax -5.524969887517656 0.8892052190544452 -0.07705586679887799
lowerneck -14.14568544043701 -2.9891921246599233 -1.0456560000030908
upperneck 16.593679169718598 -4.060882440689795 1.3888848788365626
head 7.69760753019851 -1.9043684623394097 0.20611346022707502
rclavicle -1.834465007012404E-16 -8.867081773356874E-17
rhumerus -19.755008015711635 -7.406571838581603 -67.50887729445101
rradius 60.23111037646144
rwrist -7.985846378222945
rhand -13.400275510372818 -8.60035712941223
rfingers 7.125019999999865
rthumb 12.732517228480944 -37.84549500102108
lclavicle -8.185563502320152E-16 -3.900172731534383E-16
lhumerus -39.69182033631908 0.2607302493956388 83.29033032106396
lradius 38.35385143349918
lwrist 2.666048008705361
lhand -19.359696983304172 0.6286718686744894
lfingers 7.125019999999877
lthumb 6.856579931070003 30.136550781305367
rfemur -8.937950773770057 2.081048919837752 14.23487807797018
rtibia 27.509288189999577
rfoot -1.5747696360233252 -3.2826369751589723
rtoes 3.2805427839883663
lfemur 0.40729519399216496 -4.2298094312286185 -19.948329436986395
ltibia 19.10697627324725
lfoot -18.507394910224424 4.73249539288765
ltoes -23.88971990132374
340
root 0 0 0 -1.855776124352991 -1.6122331412518944 -1.5031987156285282
lowerback 10.037181472900214 0.1770805905363031 -0.7446391352355646
upperback 0.13488475544996398 0.21347301142306674 1.196215668207965
thorax -5.454909692982685 0.12047956758502598 1.6288528717288073
lowerneck -14.119078910776874 -2.7153556761236906 -1.231866981595897
upperneck 16.674782497884138 -3.593376830424362 1.2422036020320057
head 7.694027628007493 -1.714902154736359 0.24133640156663105
rclavicle -1.952865222745127E-16 -9.52124552341169E-17
rhumerus -19.883167608166048 -7.559377282778704 -67.64977577771303
rradius 59.77932765668041
rwrist -7.822818116750961
rhand -13.463009174764792 -8.163161986650346
rfingers 7.125019999999868
rthumb 12.671028717155448 -37.41692176839506
lclavicle -7.894307666455695E-16 -3.752027245938794E-16
lhumerus -39.46560309545175 0.23356376144604962 83.27095144694475
lradius 38.081556179873196
lwrist 2.7656358718586445
lhand -19.58446451149691 1.311494476833861
lfingers 7.125019999999881
lthumb 6.644597577556109 30.82666000959805
rfemur -9.488289462294109 1.9219317827253817 13.970449267450915
rtibia 28.288092807635344
rfoot -1.0783264736584648 -3.2970745135793145
rtoes 3.485949426185187
lfemur 0.9988326380191825 -4.242879589698067 -20.40588093679691
ltibia 18.82202623996421
lfoot -18.445886246603298 4.499228047253506
ltoes -23.057066235987175
341
root 0 0 0 -2.0747252789702277 -0.5329065784864007 0.3414618384649244
lowerback 10.080976849615354 -0.5802716787271245 -2.6101437780956482
upperback 0.2355508381569001 -1.0103606396128222 1.2119399228231509
thorax -5.373923907194895 -0.4390079529026679 2.872275182971163
lowerneck -14.466913605777187 -2.5477595008950296 -1.4814165390172622
upperneck 17.09082740231328 -3.265883624257194 1.051075484063456
head 7.883609443516418 -1.588852549151402 0.24662913713420914
rclavicle -2.0474973185916295E-16 -1.0386486744139272E-16
rhumerus -20.02145230545963 -7.711423712033394 -67.79144162371809
rradius 59.32876540154406
rwrist -7.6548742215300365
rhand -13.524273768739867 -7.733247564979235
rfingers 7.1250199999998705
rthumb 12.611626505508356 -36.99489460274921
lclavicle -7.57925867540348E-16 -3.6859831137680586E-16
lhumerus -39.312933706550645 0.20886148760463474 83.26086406525773
lradius 37.913669495123
lwrist 2.8318597677019897
lhand -19.727704436267118 1.7460976823319747
lfingers 7.125019999999884
lthumb 6.509784591262478 31.267870649774977
rfemur -9.960688543272603 1.7074031826883027 13.57700516394057
rtibia 29.168010404515016
rfoot -0.3796551662638479 -3.2312753275480084
rtoes 3.796531446017758
lfemur 1.3167286518751977 -4.203549434843348 -20.750310374271727
ltibia 18.90647495354878
lfoot -18.198949895900146 4.175685801312557
ltoes -22.131222622198397
